<svg width="12" height="14" viewBox="0 0 12 14" xmlns="http://www.w3.org/2000/svg">
<path d="M6 0C7.89375 0 9.42857 1.5668 9.42857 3.5C9.42857 5.4332 7.89375 7 6 7C4.10625 7 2.57143 5.4332 2.57143 3.5C2.57143 1.5668 4.10625 0 6 0ZM5.60089 9.82188L5.10268 8.97422C4.93125 8.68164 5.1375 8.3125 5.46964 8.3125H6H6.52768C6.85982 8.3125 7.06607 8.68438 6.89464 8.97422L6.39643 9.82188L7.29107 13.2098L8.34911 8.80195C10.417 9.13008 12 10.9566 12 13.1605C12 13.6254 11.6304 14 11.1777 14H7.10089H4.89911H0.822321C0.369643 14 0 13.6227 0 13.1605C0 10.9566 1.58304 9.13008 3.65089 8.80195L4.70893 13.2098L5.60357 9.82188H5.60089Z"/>
</svg>
