<svg width="10" height="14" viewBox="0 0 10 14" xmlns="http://www.w3.org/2000/svg">
<path d="M1.66667 0C0.747396 0 0 0.784766 0 1.75V12.25C0 13.2152 0.747396 14 1.66667 14H8.33333C9.2526 14 10 13.2152 10 12.25V4.375H6.66667C6.20573 4.375 5.83333 3.98398 5.83333 3.5V0H1.66667ZM6.66667 0V3.5H10L6.66667 0ZM2.08333 1.75H3.75C3.97917 1.75 4.16667 1.94687 4.16667 2.1875C4.16667 2.42812 3.97917 2.625 3.75 2.625H2.08333C1.85417 2.625 1.66667 2.42812 1.66667 2.1875C1.66667 1.94687 1.85417 1.75 2.08333 1.75ZM2.08333 3.5H3.75C3.97917 3.5 4.16667 3.69688 4.16667 3.9375C4.16667 4.17812 3.97917 4.375 3.75 4.375H2.08333C1.85417 4.375 1.66667 4.17812 1.66667 3.9375C1.66667 3.69688 1.85417 3.5 2.08333 3.5ZM3.49479 10.4398C3.33594 10.9949 2.84896 11.375 2.29687 11.375H2.08333C1.85417 11.375 1.66667 11.1781 1.66667 10.9375C1.66667 10.6969 1.85417 10.5 2.08333 10.5H2.29687C2.48177 10.5 2.64323 10.3742 2.69531 10.1883L3.08333 8.83477C3.17188 8.52578 3.44271 8.3125 3.75 8.3125C4.05729 8.3125 4.32812 8.52305 4.41667 8.83477L4.71875 9.89023C4.91146 9.7207 5.15625 9.625 5.41667 9.625C5.83073 9.625 6.20833 9.87109 6.39323 10.2594L6.50781 10.5H7.91667C8.14583 10.5 8.33333 10.6969 8.33333 10.9375C8.33333 11.1781 8.14583 11.375 7.91667 11.375H6.25C6.09115 11.375 5.94792 11.282 5.8776 11.1344L5.64844 10.6504C5.60417 10.5574 5.51562 10.5 5.41927 10.5C5.32292 10.5 5.23177 10.5574 5.1901 10.6504L4.96094 11.1344C4.88542 11.2957 4.72135 11.3914 4.55208 11.375C4.38281 11.3586 4.23698 11.2355 4.1901 11.066L3.75 9.54297L3.49479 10.4398Z" />
</svg>
