<svg width="16" height="14" viewBox="0 0 16 14"  xmlns="http://www.w3.org/2000/svg">
<path d="M7.34725 0.142236C7.76114 -0.0464355 8.23892 -0.0464355 8.6528 0.142236L14.725 2.90395C14.9611 3.0106 15.1111 3.24302 15.1111 3.50005C15.1111 3.75708 14.9611 3.9895 14.725 4.09614L8.6528 6.85786C8.23892 7.04653 7.76114 7.04653 7.34725 6.85786L1.27503 4.09614C1.03892 3.98677 0.888916 3.75435 0.888916 3.50005C0.888916 3.24575 1.03892 3.0106 1.27503 2.90395L7.34725 0.142236ZM13.2472 5.7313L14.725 6.40395C14.9611 6.5106 15.1111 6.74302 15.1111 7.00005C15.1111 7.25708 14.9611 7.4895 14.725 7.59614L8.6528 10.3579C8.23892 10.5465 7.76114 10.5465 7.34725 10.3579L1.27503 7.59614C1.03892 7.48677 0.888916 7.25435 0.888916 7.00005C0.888916 6.74575 1.03892 6.5106 1.27503 6.40395L2.7528 5.7313L6.97503 7.65083C7.62503 7.94614 8.37503 7.94614 9.02503 7.65083L13.2472 5.7313ZM9.02503 11.1508L13.2472 9.2313L14.725 9.90395C14.9611 10.0106 15.1111 10.243 15.1111 10.5C15.1111 10.7571 14.9611 10.9895 14.725 11.0961L8.6528 13.8579C8.23892 14.0465 7.76114 14.0465 7.34725 13.8579L1.27503 11.0961C1.03892 10.9868 0.888916 10.7543 0.888916 10.5C0.888916 10.2458 1.03892 10.0106 1.27503 9.90395L2.7528 9.2313L6.97503 11.1508C7.62503 11.4461 8.37503 11.4461 9.02503 11.1508Z"/>
</svg>
