<svg width="20" height="18" viewBox="0 0 20 18"  xmlns="http://www.w3.org/2000/svg">
<path d="M7.5 15.375H1.03125C0.482143 15.375 0 15.8813 0 16.4578C0 17.1187 0.482143 17.625 1.03125 17.625H7.5C8.08929 17.625 8.57143 17.1187 8.57143 16.5C8.57143 15.8813 8.08929 15.375 7.5 15.375ZM18.9286 0.375H1.03125C0.482143 0.375 0 0.88125 0 1.45781C0 2.03437 0.482143 2.625 1.03125 2.625H18.9286C19.5179 2.625 20 2.11875 20 1.54219C20 0.965625 19.5179 0.375 18.9286 0.375ZM13.2143 7.875H1.03125C0.482143 7.875 0 8.38125 0 8.95781C0 9.61875 0.482143 10.125 1.03125 10.125H13.1741C13.8036 10.125 14.2857 9.61875 14.2857 9C14.2857 8.38125 13.8036 7.875 13.2143 7.875Z"/>
</svg>
