<svg width="14" height="14" viewBox="0 0 14 14" fill="none" xmlns="http://www.w3.org/2000/svg">
<path d="M9.625 6.34375H7.65625V4.375C7.65625 4.01242 7.36258 3.71875 7.02461 3.71875C6.68664 3.71875 6.34375 4.01133 6.34375 4.375V6.34375H4.375C4.01133 6.34375 3.71875 6.63633 3.71875 7C3.71875 7.3623 4.0127 7.65625 4.375 7.65625H6.34375V9.625C6.34375 9.9873 6.6377 10.2812 7 10.2812C7.3623 10.2812 7.65625 9.98867 7.65625 9.625V7.65625H9.625C9.98867 7.65625 10.2812 7.36367 10.2812 7C10.2812 6.63633 9.98867 6.34375 9.625 6.34375ZM7 0C3.13359 0 0 3.13359 0 7C0 10.8664 3.13359 14 7 14C10.8664 14 14 10.8664 14 7C14 3.13359 10.8664 0 7 0ZM7 12.6875C3.86367 12.6875 1.3125 10.1361 1.3125 7C1.3125 3.86395 3.86367 1.3125 7 1.3125C10.1363 1.3125 12.6875 3.86395 12.6875 7C12.6875 10.1361 10.1363 12.6875 7 12.6875Z" fill="#5D5FEF"/>
</svg>
