<svg width="16" height="12" viewBox="0 0 16 12"  xmlns="http://www.w3.org/2000/svg">
<path d="M1.77778 0.75C0.797222 0.75 0 1.53477 0 2.5V9.5C0 10.4652 0.797222 11.25 1.77778 11.25H14.2222C15.2028 11.25 16 10.4652 16 9.5V2.5C16 1.53477 15.2028 0.75 14.2222 0.75H1.77778ZM3.11111 5.125H7.55556C7.8 5.125 8 5.32188 8 5.5625C8 5.80312 7.8 6 7.55556 6H3.11111C2.86667 6 2.66667 5.80312 2.66667 5.5625C2.66667 5.32188 2.86667 5.125 3.11111 5.125ZM2.66667 8.1875C2.66667 7.94688 2.86667 7.75 3.11111 7.75H12.8889C13.1333 7.75 13.3333 7.94688 13.3333 8.1875C13.3333 8.42812 13.1333 8.625 12.8889 8.625H3.11111C2.86667 8.625 2.66667 8.42812 2.66667 8.1875ZM10.4444 3.375H12.6667C13.0361 3.375 13.3333 3.66758 13.3333 4.03125V5.34375C13.3333 5.70742 13.0361 6 12.6667 6H10.4444C10.075 6 9.77778 5.70742 9.77778 5.34375V4.03125C9.77778 3.66758 10.075 3.375 10.4444 3.375Z" />
</svg>
