<svg width="13" height="16" viewBox="0 0 13 16"  xmlns="http://www.w3.org/2000/svg">
<path d="M2.78571 16C1.24777 16 0 14.6562 0 13V3C0 1.34375 1.24777 0 2.78571 0H11.1429H12.0714C12.585 0 13 0.446875 13 1C13 1.55313 12.585 2 12.0714 2V4C12.585 4 13 4.44687 13 5V15C13 15.5531 12.585 16 12.0714 16H11.1429H2.78571ZM2.78571 4H10.2143V2H2.78571C2.2721 2 1.85714 2.44687 1.85714 3C1.85714 3.55313 2.2721 4 2.78571 4ZM3.71429 11.5C3.71429 11.775 3.92321 12 4.17857 12H9.75C10.0054 12 10.2143 11.775 10.2143 11.5C10.2143 11.225 10.0054 11 9.75 11H4.17857C3.92321 11 3.71429 11.225 3.71429 11.5ZM4.17857 10H9.75C10.0054 10 10.2143 9.775 10.2143 9.5C10.2143 9.225 10.0054 9 9.75 9H4.17857C3.92321 9 3.71429 9.225 3.71429 9.5C3.71429 9.775 3.92321 10 4.17857 10Z" />
</svg>
