<svg width="11" height="14" viewBox="0 0 11 14" xmlns="http://www.w3.org/2000/svg">
<path d="M1.83333 0C0.822135 0 0 0.784766 0 1.75V12.25C0 13.2152 0.822135 14 1.83333 14H9.16667C10.1779 14 11 13.2152 11 12.25V1.75C11 0.784766 10.1779 0 9.16667 0H1.83333ZM2.75 1.75H8.25C8.75703 1.75 9.16667 2.14102 9.16667 2.625V3.5C9.16667 3.98398 8.75703 4.375 8.25 4.375H2.75C2.24297 4.375 1.83333 3.98398 1.83333 3.5V2.625C1.83333 2.14102 2.24297 1.75 2.75 1.75ZM1.83333 6.125C1.83333 5.64102 2.24297 5.25 2.75 5.25C3.25703 5.25 3.66667 5.64102 3.66667 6.125C3.66667 6.60898 3.25703 7 2.75 7C2.24297 7 1.83333 6.60898 1.83333 6.125ZM2.75 7.875C3.25703 7.875 3.66667 8.26602 3.66667 8.75C3.66667 9.23398 3.25703 9.625 2.75 9.625C2.24297 9.625 1.83333 9.23398 1.83333 8.75C1.83333 8.26602 2.24297 7.875 2.75 7.875ZM1.83333 11.375C1.83333 10.891 2.24297 10.5 2.75 10.5H5.5C6.00703 10.5 6.41667 10.891 6.41667 11.375C6.41667 11.859 6.00703 12.25 5.5 12.25H2.75C2.24297 12.25 1.83333 11.859 1.83333 11.375ZM5.5 5.25C6.00703 5.25 6.41667 5.64102 6.41667 6.125C6.41667 6.60898 6.00703 7 5.5 7C4.99297 7 4.58333 6.60898 4.58333 6.125C4.58333 5.64102 4.99297 5.25 5.5 5.25ZM4.58333 8.75C4.58333 8.26602 4.99297 7.875 5.5 7.875C6.00703 7.875 6.41667 8.26602 6.41667 8.75C6.41667 9.23398 6.00703 9.625 5.5 9.625C4.99297 9.625 4.58333 9.23398 4.58333 8.75ZM8.25 5.25C8.75703 5.25 9.16667 5.64102 9.16667 6.125C9.16667 6.60898 8.75703 7 8.25 7C7.74297 7 7.33333 6.60898 7.33333 6.125C7.33333 5.64102 7.74297 5.25 8.25 5.25ZM7.33333 8.75C7.33333 8.26602 7.74297 7.875 8.25 7.875C8.75703 7.875 9.16667 8.26602 9.16667 8.75C9.16667 9.23398 8.75703 9.625 8.25 9.625C7.74297 9.625 7.33333 9.23398 7.33333 8.75ZM8.25 10.5C8.75703 10.5 9.16667 10.891 9.16667 11.375C9.16667 11.859 8.75703 12.25 8.25 12.25C7.74297 12.25 7.33333 11.859 7.33333 11.375C7.33333 10.891 7.74297 10.5 8.25 10.5Z" />
</svg>
