<svg width="16" height="16" viewBox="0 0 16 16" fill="none" xmlns="http://www.w3.org/2000/svg">
<path d="M12.5036 0.949062C11.9607 0.417852 11.2464 0.125 10.4821 0.125H2.85714C1.28143 0.125 0 1.38676 0 2.9375V13.0625C0 14.6129 1.28143 15.875 2.85714 15.875H13.1429C14.7189 15.875 16 14.6132 16 13.0625V5.55664C16 4.805 15.7031 4.09871 15.1629 3.5675L12.5036 0.949062ZM3.42857 1.25H10.2857V4.625H3.42857V1.25ZM14.8571 13.0625C14.8571 13.9931 14.0882 14.75 13.1429 14.75H2.85714C1.91179 14.75 1.14286 13.9941 1.14286 13.0625V2.9375C1.14286 2.2052 1.62214 1.58645 2.28571 1.35371V4.625C2.28571 5.24621 2.7975 5.75 3.42857 5.75H10.2857C10.9168 5.75 11.4286 5.24621 11.4286 4.625V1.53195C11.5237 1.59376 11.6131 1.66453 11.6942 1.7444L14.3549 4.36354C14.6786 4.68125 14.8571 5.10664 14.8571 5.55664V13.0625ZM8 7.4375C6.42393 7.4375 5.14286 8.69926 5.14286 10.25C5.14286 11.8007 6.42429 13.0625 8 13.0625C9.57572 13.0625 10.8571 11.8007 10.8571 10.25C10.8571 8.69926 9.575 7.4375 8 7.4375ZM8 11.9375C7.05464 11.9375 6.28571 11.1806 6.28571 10.25C6.28571 9.31941 7.05357 8.5625 8 8.5625C8.94643 8.5625 9.71429 9.31941 9.71429 10.25C9.71429 11.1806 8.94643 11.9375 8 11.9375Z" fill="white"/>
</svg>
